<svg width="111" height="18" viewBox="0 0 111 18" fill="none" xmlns="http://www.w3.org/2000/svg">
<g clip-path="url(#clip0_1_1121)">
<path d="M4.8797 6.36375C5.30329 5.77606 6.28601 4.33203 9.1325 4.33203C11.1827 4.33203 12.2162 5.12121 12.6398 5.5242C13.8597 6.71636 13.9444 8.42905 13.9444 9.38614V17.4962H8.77669V10.4776C8.77669 9.83949 8.75974 8.54658 7.03152 8.54658C5.20163 8.54658 5.1508 9.95703 5.1508 10.6455V17.4794H0V4.66785H4.8797V6.36375Z" fill="#00A4B8"/>
<path d="M15.9407 0H21.0915V3.39179H15.9407V0ZM15.9407 4.66791H21.0915V17.5131H15.9407V4.66791Z" fill="#00A4B8"/>
<path d="M23.0717 0H28.2564V8.32836L31.7637 4.66791H38.0667L33.1361 9.30224L38.2869 17.5131H32.3906L29.561 12.6269L28.2056 13.9198V17.5131H23.0717V0Z" fill="#00A4B8"/>
<path d="M39.097 0H44.2817V8.32836L47.789 4.66791H54.0919L49.1614 9.30224L54.3122 17.5131H48.4328L45.6033 12.6269L44.2478 13.9198V17.5131H39.097V0Z" fill="#00A4B8"/>
<path d="M66.4747 5.97765C67.6946 7.13623 68.5079 9.08399 68.5079 11.1157C68.5079 15.1623 65.6784 18 60.7817 18C55.5462 18 53.3944 14.625 53.3944 11.1829C53.3944 6.96832 56.2748 4.09705 61.0528 4.11384C63.6621 4.14742 65.4751 5.03735 66.4747 5.97765ZM58.5113 11.0318C58.5113 12.2743 58.8163 14.4235 60.9173 14.4235C62.7133 14.4235 63.2894 12.9124 63.2894 10.9814C63.2894 10.209 63.2385 7.63996 60.8834 7.70713C58.9349 7.7575 58.5113 9.58772 58.5113 11.0318Z" fill="#00A4B8"/>
<path d="M71.1927 8.79851C71.396 7.70709 71.6671 6.34701 73.5139 5.37313C74.971 4.63433 76.8179 4.5 78.1733 4.5C84.3238 4.5 84.3238 7.65672 84.3238 9.1847V16.1698C84.3238 17.0093 84.3916 17.2444 84.7813 17.7481H79.6983V16.7575C79.0544 17.2108 77.8514 18.0504 75.4285 18.0504C72.1754 18.0504 70.7521 16.0858 70.7521 13.903C70.7521 13.1306 70.9216 12.0728 71.8535 11.1493C73.0226 9.95709 74.4289 9.7556 76.6993 9.47015C78.1225 9.26866 78.6817 9.15112 79.4441 8.93283C79.4272 8.0597 79.173 7.47201 77.6989 7.47201C76.5298 7.47201 76.191 7.77425 76.0215 8.66418L71.1927 8.79851ZM77.8853 12.291C77.4617 12.3918 77.0043 12.4925 76.5637 12.6437C75.5641 13.0466 75.5132 13.6343 75.5132 13.7854C75.5132 14.1381 75.8182 14.7761 76.784 14.7761C77.5126 14.7761 78.7155 14.306 79.1561 13.3153C79.4102 12.778 79.4102 12.2575 79.4102 11.8041C78.9189 11.972 78.4106 12.1399 77.8853 12.291Z" fill="#FFD74A"/>
<path d="M91.2171 6.78402C91.6238 6.14596 92.5048 4.63477 95.3344 4.63477C95.7919 4.63477 96.5035 4.68514 97.3168 4.937C98.9942 5.45753 99.4855 6.38103 99.8413 7.05268C100.214 6.21312 101.383 4.65156 104.348 4.65156C105.755 4.65156 107.093 5.10491 107.957 5.94447C109.126 7.08626 109.16 8.47991 109.177 9.68887V17.7989H104.026V11.0825C104.026 10.2598 104.009 8.8829 102.23 8.8829C100.35 8.8829 100.333 10.3941 100.333 10.965V17.8325H95.1819V10.8475C95.1819 10.5956 95.165 10.3437 95.1141 10.1086C94.8939 9.11797 94.0128 8.84932 93.3859 8.84932C92.8607 8.84932 92.3354 9.01723 91.9796 9.36984C91.5052 9.83999 91.5052 10.3605 91.4713 10.8139V17.7989H86.3205V4.9538H91.251V6.78402H91.2171Z" fill="#FFD74A"/>
</g>
<defs>
<clipPath id="clip0_1_1121">
<rect width="110.25" height="18" fill="white"/>
</clipPath>
</defs>
</svg>
